<svg xmlns="http://www.w3.org/2000/svg" xmlns:xlink="http://www.w3.org/1999/xlink" version="1.1" width="1000" height="1000" viewBox="0 0 1000 1000" xml:space="preserve">
<rect x="0" y="0" width="100%" height="100%" fill="#000000"/>
<g transform="matrix(55.4212 0 0 55.4212 499.9985 499.9985)" id="179479">
<path style="stroke: none; stroke-width: 1; stroke-dasharray: none; stroke-linecap: butt; stroke-dashoffset: 0; stroke-linejoin: miter; stroke-miterlimit: 4; is-custom-font: none; font-file-url: none; fill: rgb(255,255,255); fill-rule: nonzero; opacity: 1;" vector-effect="non-scaling-stroke" transform=" translate(-12, -12)" d="M 8 3 a 5 5 0 0 0 -5 5 v 8 a 5 5 0 0 0 5 5 h 8 a 5 5 0 0 0 5 -5 V 8 a 5 5 0 0 0 -5 -5 z m 10 2 c 0.55 0 1 0.45 1 1 s -0.45 1 -1 1 s -1 -0.45 -1 -1 s 0.45 -1 1 -1 z m -6 2 a 5 5 0 1 1 0 10 a 5 5 0 0 1 0 -10 z m 0 2 a 3 3 0 1 0 0.002 6.002 A 3 3 0 0 0 12 9 z" stroke-linecap="round"/>
</g>
</svg>